<svg width="372" height="96" viewBox="0 0 372 96" fill="none" xmlns="http://www.w3.org/2000/svg">
<path d="M92.1467 24.6281C88.6461 26.6873 86.0721 29.6731 84.4247 33.5856V21.8482H79.4826V75.5933H84.6306V47.5882C84.6306 40.9987 86.278 35.7478 89.6757 32.0412C92.9704 28.3347 97.7066 26.3784 103.678 26.3784L104.914 26.4814V21.4363C99.8687 21.4363 95.6474 22.5689 92.1467 24.6281Z" fill="url(#paint0_linear_29_28)"/>
<path d="M126.248 21.8482V75.5933H131.396V21.8482H126.248ZM125.836 7.6397C126.66 8.46338 127.587 8.77226 128.822 8.77226C129.955 8.77226 130.984 8.36042 131.808 7.53674C132.632 6.71306 133.043 5.78642 133.043 4.5509C133.043 3.41834 132.632 2.4917 131.808 1.66802C130.984 0.844338 129.955 0.432495 128.822 0.432495C127.587 0.432495 126.66 0.844338 125.836 1.66802C125.013 2.4917 124.601 3.52129 124.601 4.65385C124.601 5.88937 125.013 6.81602 125.836 7.6397Z" fill="url(#paint1_linear_29_28)"/>
<path d="M203.485 21.8482H198.234L176.612 69.9305L155.197 21.8482H149.74L173.935 75.5933H179.186L203.485 21.8482Z" fill="url(#paint2_linear_29_28)"/>
<path d="M221.79 21.8482V75.5933H226.938V21.8482H221.79ZM221.378 7.6397C222.202 8.46338 223.128 8.77226 224.364 8.77226C225.497 8.77226 226.526 8.36042 227.35 7.53674C228.174 6.71306 228.585 5.78642 228.585 4.5509C228.585 3.41834 228.174 2.4917 227.35 1.66802C226.526 0.844338 225.497 0.432495 224.364 0.432495C223.128 0.432495 222.202 0.844338 221.378 1.66802C220.554 2.4917 220.143 3.52129 220.143 4.65385C220.143 5.88937 220.554 6.81602 221.378 7.6397Z" fill="url(#paint3_linear_29_28)"/>
<path d="M289.349 26.5843C285.745 23.1867 280.597 21.4363 274.008 21.4363C269.889 21.4363 265.874 22.1571 262.167 23.4955C258.358 24.834 255.166 26.6873 252.489 29.0554L255.063 32.7619C257.328 30.7027 260.005 29.0554 263.3 27.8199C266.594 26.5843 269.992 25.9666 273.596 25.9666C278.744 25.9666 282.759 27.3051 285.436 29.8791C288.113 32.556 289.555 36.3655 289.555 41.3076V45.6319H271.125C264.123 45.6319 258.975 47.0734 255.784 49.8533C252.592 52.6332 251.047 56.2368 251.047 60.6641C251.047 65.2973 252.695 69.0039 256.195 71.7838C259.696 74.6667 264.432 76.0051 270.404 76.0051C274.934 76.0051 278.95 75.1815 282.244 73.4311C285.539 71.6808 288.01 69.2098 289.76 66.018V75.5933H294.702V41.5135C294.702 34.9241 292.849 29.982 289.349 26.5843ZM282.45 68.695C279.361 70.7542 275.552 71.7838 271.125 71.7838C266.389 71.7838 262.682 70.8571 260.108 68.7979C257.431 66.7387 256.195 63.9588 256.195 60.4582C256.195 57.1635 257.328 54.4865 259.696 52.5303C262.064 50.677 265.874 49.6474 271.228 49.6474H289.555V59.7375C287.907 63.6499 285.539 66.6358 282.45 68.695Z" fill="url(#paint4_linear_29_28)"/>
<path d="M365.377 27.3051C361.465 23.3926 356.111 21.4363 349.418 21.4363C344.373 21.4363 340.049 22.5689 336.342 24.6281C332.636 26.7903 329.959 29.7761 328.106 33.4827V21.8482H323.164V75.5933H328.312V46.9704C328.312 40.5869 330.062 35.5419 333.768 31.7323C337.372 28.0258 342.314 26.0695 348.698 26.0695C354.155 26.0695 358.376 27.7169 361.465 30.8057C364.554 33.9975 366.098 38.6307 366.098 44.6023V75.5933H371.246V44.1905C371.246 36.8803 369.29 31.2175 365.377 27.3051Z" fill="url(#paint5_linear_29_28)"/>
<path d="M51.1009 66.2022C54.7175 61.602 56.8746 55.8003 56.8746 49.4948C56.8746 34.553 44.7618 22.4402 29.82 22.4402C14.8781 22.4402 2.76538 34.553 2.76538 49.4948C2.76538 64.4367 14.8781 76.5494 29.82 76.5494C36.321 76.5494 42.2864 74.2565 46.9517 70.4352L41.0419 64.5254C37.4182 67.2719 32.9012 68.9015 28.0037 68.9015C16.0713 68.9015 6.39822 59.2284 6.39822 47.296C6.39822 35.3637 16.0713 25.6906 28.0037 25.6906C39.936 25.6906 49.6091 35.3637 49.6091 47.296C49.6091 52.1936 47.9795 56.7106 45.233 60.3343L51.1009 66.2022Z" fill="url(#paint6_linear_29_28)"/>
<path d="M0.716797 22.6624H5.98343V95.5675H0.716797V22.6624Z" fill="url(#paint7_linear_29_28)"/>
<defs>
<linearGradient id="paint0_linear_29_28" x1="3.34709" y1="95.5675" x2="371.246" y2="95.5675" gradientUnits="userSpaceOnUse">
<stop stop-color="#2A2CAF"/>
<stop offset="1" stop-color="#C82063"/>
</linearGradient>
<linearGradient id="paint1_linear_29_28" x1="3.34709" y1="95.5675" x2="371.246" y2="95.5675" gradientUnits="userSpaceOnUse">
<stop stop-color="#2A2CAF"/>
<stop offset="1" stop-color="#C82063"/>
</linearGradient>
<linearGradient id="paint2_linear_29_28" x1="3.34709" y1="95.5675" x2="371.246" y2="95.5675" gradientUnits="userSpaceOnUse">
<stop stop-color="#2A2CAF"/>
<stop offset="1" stop-color="#C82063"/>
</linearGradient>
<linearGradient id="paint3_linear_29_28" x1="3.34709" y1="95.5675" x2="371.246" y2="95.5675" gradientUnits="userSpaceOnUse">
<stop stop-color="#2A2CAF"/>
<stop offset="1" stop-color="#C82063"/>
</linearGradient>
<linearGradient id="paint4_linear_29_28" x1="3.34709" y1="95.5675" x2="371.246" y2="95.5675" gradientUnits="userSpaceOnUse">
<stop stop-color="#2A2CAF"/>
<stop offset="1" stop-color="#C82063"/>
</linearGradient>
<linearGradient id="paint5_linear_29_28" x1="3.34709" y1="95.5675" x2="371.246" y2="95.5675" gradientUnits="userSpaceOnUse">
<stop stop-color="#2A2CAF"/>
<stop offset="1" stop-color="#C82063"/>
</linearGradient>
<linearGradient id="paint6_linear_29_28" x1="3.34709" y1="95.5675" x2="371.246" y2="95.5675" gradientUnits="userSpaceOnUse">
<stop stop-color="#2A2CAF"/>
<stop offset="1" stop-color="#C82063"/>
</linearGradient>
<linearGradient id="paint7_linear_29_28" x1="3.34709" y1="95.5675" x2="371.246" y2="95.5675" gradientUnits="userSpaceOnUse">
<stop stop-color="#2A2CAF"/>
<stop offset="1" stop-color="#C82063"/>
</linearGradient>
</defs>
</svg>
