<svg width="231" height="231" viewBox="0 0 231 231" fill="none" xmlns="http://www.w3.org/2000/svg">
<path fill-rule="evenodd" clip-rule="evenodd" d="M206.301 186.806C221.686 167.237 230.863 142.556 230.863 115.732C230.863 52.1691 179.335 0.640869 115.771 0.640869C52.2079 0.640869 0.679688 52.1691 0.679688 115.732C0.679688 179.296 52.2079 230.824 115.771 230.824C143.427 230.824 168.804 221.07 188.65 204.814L163.51 179.673C148.094 191.357 128.879 198.289 108.045 198.289C57.2838 198.289 16.1341 157.14 16.1341 106.379C16.1341 55.6181 57.2838 14.4683 108.045 14.4683C158.805 14.4683 199.955 55.6181 199.955 106.379C199.955 127.213 193.023 146.429 181.339 161.844L206.301 186.806Z" fill="url(#paint0_linear_6_2)"/>
<defs>
<linearGradient id="paint0_linear_6_2" x1="0.679686" y1="31.9127" x2="200.845" y2="230.824" gradientUnits="userSpaceOnUse">
<stop stop-color="#4B4DCE"/>
<stop offset="1" stop-color="#DA1953"/>
</linearGradient>
</defs>
</svg>
