<svg width="54" height="35" viewBox="0 0 54 35" fill="none" xmlns="http://www.w3.org/2000/svg">
<path d="M45.5129 10.6899C45.5129 10.6899 46.8734 12.1476 48.774 12.1476C50.2748 12.1476 51.3654 11.2406 51.3654 9.99881C51.3654 8.47631 49.9724 7.77445 48.2879 7.77445H47.2946L46.7007 6.43551L49.3354 3.31495C49.8969 2.64548 50.3719 2.22436 50.3719 2.22436C50.3719 2.22436 49.9509 2.24595 49.0979 2.24595H44.8111V0H53.5897V1.64127L50.0696 5.71206C52.0565 5.9928 54 7.40733 54 9.90163C54 12.3527 52.1428 14.6203 48.9359 14.6203C45.8801 14.6203 44.1849 12.6983 44.1849 12.6983L45.5129 10.6899Z" fill="#04AA6D"/>
<path d="M28.3875 13.7242L39.9844 34.3696L45.7072 24.1658L34.7583 4.67562H22.0168L16.7366 14.0806L11.4565 4.67562H0L16.6719 34.3696L16.7366 34.2617L16.8015 34.3696L28.3875 13.7242Z" fill="#04AA6D"/>
</svg>
